<?xml version="1.0" encoding="utf-8"?>
<!-- Generator: Adobe Illustrator 21.0.2, SVG Export Plug-In . SVG Version: 6.00 Build 0)  -->
<svg version="1.1" id="Layer_1" xmlns="http://www.w3.org/2000/svg" xmlns:xlink="http://www.w3.org/1999/xlink" x="0px" y="0px"
	 viewBox="0 0 100 100" style="enable-background:new 0 0 100 100;" xml:space="preserve">
<g>
	<path d="M89,65V25c0-5.5-4.5-10-10-10H21c-5.5,0-10,4.5-10,10v40c-3.3,0-6,2.7-6,6c0,7.7,6.3,14,14,14h62c7.7,0,14-6.3,14-14
		C95,67.7,92.3,65,89,65z M15,25c0-3.3,2.7-6,6-6h58c3.3,0,6,2.7,6,6v40H15V25z M57,69v2c0,1.1-0.9,2-2,2H45c-1.1,0-2-0.9-2-2v-2H57
		z M81,81H19c-5.5,0-10-4.5-10-10c0-1.1,0.9-2,2-2h28v2c0,3.3,2.7,6,6,6h10c3.3,0,6-2.7,6-6v-2h28c1.1,0,2,0.9,2,2
		C91,76.5,86.5,81,81,81z"/>
	<path d="M38.3,29.5c-0.8-0.7-2.1-0.7-2.8,0.1l-10,11c-0.7,0.8-0.7,1.9,0,2.7l10,11c0.4,0.4,0.9,0.7,1.5,0.7c0.5,0,1-0.2,1.3-0.5
		c0.8-0.7,0.9-2,0.1-2.8L29.7,42l8.8-9.7C39.2,31.5,39.2,30.3,38.3,29.5z"/>
	<path d="M64.5,29.6c-0.7-0.8-2-0.9-2.8-0.1c-0.8,0.7-0.9,2-0.1,2.8l8.8,9.7l-8.8,9.6c-0.7,0.8-0.7,2.1,0.1,2.8
		C62,54.8,62.5,55,63,55c0.5,0,1.1-0.2,1.5-0.7l10-11c0.7-0.8,0.7-1.9,0-2.7L64.5,29.6z"/>
	<path d="M53.5,29.1c-1.1-0.3-2.2,0.3-2.5,1.4l-6,22c-0.3,1.1,0.3,2.2,1.4,2.5c0.2,0,0.4,0.1,0.5,0.1c0.9,0,1.7-0.6,1.9-1.5l6-22
		C55.2,30.5,54.6,29.4,53.5,29.1z"/>
</g>
</svg>
