<?xml version="1.0" encoding="utf-8"?>
<!-- Generator: Adobe Illustrator 21.0.2, SVG Export Plug-In . SVG Version: 6.00 Build 0)  -->
<svg version="1.1" id="Layer_1" xmlns="http://www.w3.org/2000/svg" xmlns:xlink="http://www.w3.org/1999/xlink" x="0px" y="0px"
	 viewBox="0 0 100 100" style="enable-background:new 0 0 100 100;" xml:space="preserve">
<path d="M50,5C33.5,5,20,18.5,20,35c0,9.9,4.8,19.1,13,24.7V71v12c0,1.1,0.9,2,2,2h3v8c0,1.1,0.9,2,2,2h22c1.1,0,2-0.9,2-2v-8h3
	c1.1,0,2-0.9,2-2V71V58.2c7-5.7,11-14.1,11-23.2C80,18.5,66.5,5,50,5z M60,91H42v-6h18V91z M65,81h-3H40h-3v-8h28V81z M65.8,55.7
	c-0.5,0.4-0.8,1-0.8,1.6V69H37V58.6c0-0.7-0.3-1.3-0.9-1.7C28.5,52.1,24,43.9,24,35C24,20.7,35.7,9,50,9c14.3,0,26,11.7,26,26
	C76,43.2,72.3,50.7,65.8,55.7z M62,28h-5.1l3-8.3c0.2-0.6,0.1-1.3-0.2-1.8c-0.4-0.5-1-0.9-1.6-0.9H44c-0.9,0-1.7,0.6-1.9,1.5l-6,21
	c-0.2,0.6-0.1,1.3,0.3,1.8c0.4,0.5,1,0.8,1.6,0.8h6.4L48,59.4c0.2,0.9,0.9,1.5,1.8,1.6c0.1,0,0.1,0,0.2,0c0.8,0,1.5-0.5,1.8-1.2
	l12-29c0.3-0.6,0.2-1.3-0.2-1.9S62.7,28,62,28z M50.6,52.3L48,39.6c-0.2-0.9-1-1.6-2-1.6h-5.3l4.9-17h9.6l-3,8.3
	c-0.2,0.6-0.1,1.3,0.2,1.8c0.4,0.5,1,0.9,1.6,0.9h5L50.6,52.3z M13,37H7c-1.1,0-2-0.9-2-2s0.9-2,2-2h6c1.1,0,2,0.9,2,2
	S14.1,37,13,37z M15.8,25.9C15.4,26.6,14.7,27,14,27c-0.3,0-0.6-0.1-0.9-0.2l-4-2c-1-0.5-1.4-1.7-0.9-2.7c0.5-1,1.7-1.4,2.7-0.9l4,2
	C15.9,23.7,16.3,24.9,15.8,25.9z M15.8,44.1c0.5,1,0.1,2.2-0.9,2.7l-4,2C10.6,48.9,10.3,49,10,49c-0.7,0-1.4-0.4-1.8-1.1
	c-0.5-1-0.1-2.2,0.9-2.7l4-2C14.1,42.7,15.3,43.1,15.8,44.1z M95,35c0,1.1-0.9,2-2,2h-6c-1.1,0-2-0.9-2-2s0.9-2,2-2h6
	C94.1,33,95,33.9,95,35z M84.2,25.9c-0.5-1-0.1-2.2,0.9-2.7l4-2c1-0.5,2.2-0.1,2.7,0.9c0.5,1,0.1,2.2-0.9,2.7l-4,2
	C86.6,26.9,86.3,27,86,27C85.3,27,84.6,26.6,84.2,25.9z M91.8,47.9C91.4,48.6,90.7,49,90,49c-0.3,0-0.6-0.1-0.9-0.2l-4-2
	c-1-0.5-1.4-1.7-0.9-2.7c0.5-1,1.7-1.4,2.7-0.9l4,2C91.9,45.7,92.3,46.9,91.8,47.9z"/>
</svg>
