<?xml version="1.0" encoding="utf-8"?>
<!-- Generator: Adobe Illustrator 23.0.1, SVG Export Plug-In . SVG Version: 6.00 Build 0)  -->
<svg version="1.1" id="Layer_1" xmlns="http://www.w3.org/2000/svg" xmlns:xlink="http://www.w3.org/1999/xlink" x="0px" y="0px"
	 viewBox="0 0 100 100" style="enable-background:new 0 0 100 100;" xml:space="preserve">
<path d="M95.71,57.62c-0.56-1.93-1.88-3.51-3.7-4.46c-4.78-2.49-8.63,1.24-9.9,2.46c-0.02,0.03-0.05,0.05-0.08,0.08l-8.97,9.74
	c-0.39-3.69-3.63-6.58-7.55-6.58H57.2c-3.83-4.87-9.39-7.11-13.12-7.11c-8.11,0-14.98,3-20.44,8.89H20v-1.89c0-1.1-0.9-2-2-2H6
	c-1.1,0-2,0.9-2,2v31c0,1.1,0.9,2,2,2h12c1.1,0,2-0.9,2-2v-2h48.06c5.45,0,10.59-2.54,13.76-6.79l13.1-17.59
	c0.05-0.07,0.09-0.13,0.13-0.2C96.03,61.46,96.26,59.49,95.71,57.62z M16,87.75H8v-27h8V87.75z M91.63,61.09L78.61,78.57
	c-2.41,3.24-6.36,5.18-10.55,5.18H20V64.64h4.52c0.14,0,0.28-0.02,0.41-0.04c0.02-0.01,0.04-0.02,0.07-0.02
	c0.11-0.03,0.21-0.06,0.32-0.11c0.04-0.02,0.08-0.04,0.12-0.06c0.08-0.04,0.16-0.09,0.23-0.14c0.04-0.03,0.08-0.06,0.12-0.1
	c0.07-0.05,0.13-0.11,0.19-0.17c0.02-0.02,0.03-0.03,0.05-0.04c0.45-0.53,0.92-1.01,1.4-1.48c4.55-4.52,10.02-6.73,16.65-6.73
	c2.27,0,6.53,1.42,9.7,5.25c0.26,0.32,0.53,0.65,0.77,1.01c0.03,0.04,0.07,0.07,0.1,0.11c0.05,0.06,0.1,0.12,0.15,0.17
	s0.1,0.09,0.15,0.13s0.1,0.08,0.15,0.11c0.06,0.04,0.12,0.07,0.18,0.1c0.05,0.03,0.11,0.06,0.17,0.08c0.06,0.03,0.12,0.04,0.18,0.06
	c0.06,0.02,0.13,0.04,0.19,0.05c0.08,0.02,0.15,0.02,0.23,0.03c0.05,0,0.09,0.01,0.14,0.01h9.32c1.98,0,3.59,1.5,3.59,3.33
	c0,1.84-1.61,3.34-3.59,3.34H42.22c-1.1,0-2,0.89-2,2c0,1.1,0.9,2,2,2h24.53c2.73,0,5.36-1.16,7.21-3.16l10.98-11.91
	c2.78-2.68,4.15-2.31,5.23-1.75c0.84,0.44,1.45,1.16,1.7,2.03C92.1,59.53,92.02,60.36,91.63,61.09z M59.1,23.56
	c-0.24,0.72-0.04,1.52,0.5,2.05l2.75,2.68l-0.65,3.78c-0.13,0.75,0.18,1.51,0.8,1.96c0.62,0.44,1.43,0.5,2.1,0.15l3.4-1.79l3.4,1.79
	c0.29,0.15,0.61,0.23,0.93,0.23c0.41,0,0.82-0.13,1.17-0.38c0.62-0.45,0.93-1.21,0.8-1.96l-0.65-3.78l2.75-2.68
	c0.54-0.53,0.74-1.33,0.5-2.05c-0.23-0.72-0.86-1.25-1.61-1.36l-3.8-0.55l-1.7-3.44c-0.33-0.69-1.03-1.12-1.79-1.12
	s-1.46,0.43-1.79,1.12l-1.7,3.44l-3.8,0.55C59.96,22.31,59.33,22.84,59.1,23.56z M66.12,25.45c0.66-0.09,1.22-0.5,1.51-1.09
	L68,23.61l0.37,0.75c0.29,0.59,0.85,1,1.51,1.09l0.82,0.12l-0.6,0.59c-0.47,0.46-0.68,1.12-0.57,1.77l0.14,0.82l-0.74-0.39
	c-0.29-0.15-0.61-0.23-0.93-0.23s-0.64,0.08-0.93,0.23l-0.74,0.39l0.14-0.82c0.11-0.65-0.1-1.31-0.57-1.77l-0.6-0.59L66.12,25.45z
	 M68,38.75c1.1,0,2,0.9,2,2v6c0,1.1-0.9,2-2,2s-2-0.9-2-2v-6C66,39.64,66.9,38.75,68,38.75z M55.67,11.37
	c-0.61-0.92-0.37-2.16,0.55-2.77c0.92-0.61,2.16-0.37,2.77,0.55l3.34,4.99c0.61,0.92,0.37,2.16-0.55,2.77
	c-0.34,0.23-0.73,0.34-1.11,0.34c-0.65,0-1.28-0.31-1.66-0.89L55.67,11.37z M73.67,14.13l3.34-4.99c0.61-0.92,1.85-1.16,2.77-0.55
	c0.92,0.61,1.16,1.86,0.55,2.77l-3.34,4.99c-0.39,0.58-1.02,0.89-1.66,0.89c-0.38,0-0.77-0.11-1.11-0.34
	C73.3,16.29,73.06,15.05,73.67,14.13z M47.67,35.25c-0.55-0.96-0.22-2.18,0.73-2.73l5.2-3c0.96-0.55,2.18-0.22,2.73,0.73
	c0.55,0.96,0.22,2.18-0.73,2.73l-5.2,3c-0.31,0.18-0.66,0.27-1,0.27C48.71,36.25,48.04,35.89,47.67,35.25z M82.4,29.52l5.2,3
	c0.96,0.55,1.28,1.78,0.73,2.73c-0.37,0.64-1.04,1-1.73,1c-0.34,0-0.68-0.09-1-0.27l-5.2-3c-0.96-0.55-1.28-1.78-0.73-2.73
	C80.22,29.29,81.45,28.96,82.4,29.52z"/>
</svg>
